<svg xmlns="http://www.w3.org/2000/svg" enable-background="new 0 0 512 512" viewBox="0 0 512 512" id="heart">
  <g>
    <g>
      <path fill="#212121" d="M256,477.703c-2.559,0-5.119-0.977-7.071-2.929L39.683,265.528C14.093,239.938,0,205.915,0,169.726s14.093-70.213,39.683-95.804c52.826-52.825,138.781-52.823,191.606,0l24.705,24.704l24.711-24.711c52.825-52.824,138.78-52.824,191.605,0c25.597,25.597,39.69,59.62,39.69,95.811c0,36.188-14.096,70.213-39.683,95.803h0L263.071,474.774C261.119,476.727,258.559,477.703,256,477.703z M135.486,54.294c-29.573,0-59.147,11.257-81.661,33.771C32.013,109.877,20,138.878,20,169.726s12.013,59.848,33.825,81.66L256,453.561l202.175-202.175C479.987,229.573,492,200.572,492,169.726c0-30.848-12.013-59.849-33.825-81.661C413.14,43.029,339.874,43.03,294.847,88.058l-31.782,31.782c-3.905,3.904-10.237,3.904-14.143,0l-31.775-31.775C194.633,65.551,165.059,54.294,135.486,54.294z"></path>
    </g>
  </g>
</svg>
